<?xml version="1.0" encoding="iso-8859-1"?>
<!-- Generator: Adobe Illustrator 19.0.0, SVG Export Plug-In . SVG Version: 6.00 Build 0)  -->
<svg version="1.1" id="Layer_1" xmlns="http://www.w3.org/2000/svg" xmlns:xlink="http://www.w3.org/1999/xlink" x="0px" y="0px"
	 viewBox="0 0 512 512" style="enable-background:new 0 0 512 512;" xml:space="preserve">
<g>
	<g>
		<path d="M462.635,168.859c-22.987-25.28-62.66-55.089-124.506-60.794c4.851-5.829,8.272-11.279,10.227-14.727
			c1.649-2.91,1.916-6.374,0.731-9.505c-1.184-3.13-3.678-5.549-6.841-6.637c-9.276-3.195-33.3-9.7-55.961-1.124
			c-4.422,1.674-8.494,3.817-12.232,6.236c10.305-21.01,26.52-35.342,37.858-43.435c3.68-2.627,4.534-7.74,1.907-11.42
			c-2.627-3.681-7.741-4.534-11.421-1.907c-16.027,11.441-40.582,33.842-50.352,68.473c-6.731-6.979-15.498-13.85-26.322-17.946
			c-22.659-8.572-46.684-2.07-55.961,1.124c-3.164,1.089-5.658,3.51-6.841,6.641c-1.185,3.131-0.917,6.596,0.734,9.504
			c1.954,3.446,5.372,8.895,10.224,14.724c-61.849,5.704-101.522,35.514-124.51,60.794C17.993,203.358,0,248.777,0,293.468
			c0,52.643,21.745,100.489,61.229,134.726C106.333,467.306,173.685,487.98,256,487.98s149.667-20.674,194.771-59.785
			C490.255,393.958,512,346.111,512,293.468C512,248.778,494.007,203.36,462.635,168.859z M219.927,91.387
			c12.872,4.87,22.315,15.303,27.971,23.197c0.107,0.148,0.229,0.282,0.344,0.424c-0.275,3.246-0.426,6.572-0.426,9.989
			c0,4.522,3.665,8.188,8.188,8.188c4.523,0,8.188-3.666,8.188-8.188c0-3.943,0.239-7.749,0.665-11.433
			c5.724-7.753,14.897-17.513,27.224-22.176c13.954-5.279,29.095-3.045,38.588-0.583c-5.486,8.129-15.358,19.828-29.306,25.105
			l-0.237,0.088c-3.52,1.302-5.991,4.423-6.45,8.146c-0.456,3.704,1.172,7.313,4.253,9.42c1.192,0.814,2.331,1.672,3.385,2.552
			c11.458,9.555,16.957,23.84,19.481,33.316c-9.774-0.779-24.814-3.623-36.272-13.176c-0.01-0.008-0.02-0.016-0.028-0.024
			c-2.966-2.479-7.143-3.025-10.637-1.389s-5.749,5.193-5.743,9.093c0,14.919-7.45,28.292-13.111,36.298
			c-5.661-8.007-13.111-21.386-13.111-36.33c0.005-3.868-2.249-7.424-5.743-9.061c-1.339-0.628-2.779-0.935-4.212-0.935
			c-2.306,0-4.596,0.794-6.426,2.323c-0.01,0.008-0.019,0.015-0.027,0.023c-11.457,9.554-26.498,12.397-36.273,13.178
			c2.524-9.475,8.023-23.76,19.481-33.316c1.055-0.88,2.193-1.739,3.384-2.553c3.081-2.107,4.709-5.716,4.253-9.42
			c-0.458-3.723-2.93-6.844-6.435-8.141l-0.247-0.093c-13.953-5.279-23.823-16.979-29.31-25.106
			C190.829,88.341,205.973,86.107,219.927,91.387z M440.044,415.823C397.959,452.315,334.318,471.605,256,471.605
			s-141.959-19.289-184.044-55.782c-35.842-31.079-55.581-74.532-55.581-122.354c0-40.668,16.441-82.072,45.106-113.595
			c22.771-25.041,63.565-54.937,128.998-56.341c1.638,1.145,3.327,2.253,5.105,3.279c-15.8,15.453-21.255,37.017-22.913,46.008
			c-0.608,3.29,0.273,6.653,2.417,9.222c2.139,2.565,5.278,4.035,8.615,4.035h0.022c8.227-0.015,27.015-1.225,43.837-10.762
			c3.447,19.03,14.553,34.232,19.812,40.56c2.138,2.573,5.284,4.05,8.63,4.05c3.347,0,6.492-1.476,8.63-4.049
			c5.255-6.325,16.351-21.515,19.806-40.563c16.824,9.541,35.615,10.75,43.841,10.764h0.023c3.338,0,6.478-1.469,8.617-4.035
			c2.144-2.57,3.025-5.932,2.418-9.221c-1.66-8.993-7.115-30.558-22.914-46.011c1.777-1.026,3.468-2.134,5.105-3.28
			c65.429,1.406,106.222,31.303,128.993,56.342c28.665,31.523,45.105,72.926,45.105,113.593
			C495.625,341.291,475.885,384.744,440.044,415.823z"/>
	</g>
</g>
<g>
</g>
<g>
</g>
<g>
</g>
<g>
</g>
<g>
</g>
<g>
</g>
<g>
</g>
<g>
</g>
<g>
</g>
<g>
</g>
<g>
</g>
<g>
</g>
<g>
</g>
<g>
</g>
<g>
</g>
</svg>
